#!OML:ASF H:\Terrain\Walking\May29\JustinRory\Justin.ASF
:FULLY-SPECIFIED
:DEGREES
1749
root 18.557 17.2227 -16.8761 -543.399 -101.935 181.65
lowerback 3.45032 4.55754 0.0905942
upperback -0.197439 6.07845 -0.023386
thorax -2.11668 3.03131 -0.390696
lowerneck -19.2004 6.32547 -5.58466
upperneck 22.0817 8.9145 6.17789
head 9.57918 4.37281 4.25769
rclavicle -2.34698e-015 2.03754e-015
rhumerus -40.0818 -37.9764 -63.3552
rradius 23.8296
rwrist -3.81549
rhand -23.1784 23.8614
rfingers 7.12502
rthumb 3.27077 -6.09328
lclavicle -2.34698e-015 2.03754e-015
lhumerus -21.4412 6.96688 75.1258
lradius 48.4118
lwrist -2.79933
lhand -0.877962 31.7465
lfingers 7.12502
lthumb 24.7492 60.1654
rfemur -10.6127 -7.8765 10.7872
rtibia 44.088
rfoot -14.2898 -11.9808
rtoes -3.00072
lfemur -7.26859 -0.108521 -18.9198
ltibia 31.8395
lfoot -21.2568 -11.8314
ltoes 3.81251
1750
root 18.4862 17.2037 -16.8903 -548.562 -102.157 186.383
lowerback 3.94075 4.56682 -0.337357
upperback -0.0357496 6.05623 -0.546906
thorax -2.21202 3.02037 -0.721977
lowerneck -19.3598 6.05438 -5.5116
upperneck 22.3364 8.38182 6.71608
head 9.71 4.19044 4.3915
rclavicle -2.24176e-015 -3.85145e-015
rhumerus -39.0806 -37.2827 -64.8999
rradius 23.8739
rwrist -4.05609
rhand -23.2482 23.3418
rfingers 7.12502
rthumb 3.20344 -6.61386
lclavicle -2.24176e-015 -3.85145e-015
lhumerus -22.8596 7.97599 74.1935
lradius 49.1322
lwrist -3.07392
lhand -1.93592 32.3549
lfingers 7.12502
lthumb 23.7349 60.9093
rfemur -10.0881 -7.43192 9.19191
rtibia 42.253
rfoot -14.7371 -11.3251
rtoes -2.89119
lfemur -6.30478 -0.195759 -19.9501
ltibia 31.7041
lfoot -21.572 -11.8952
ltoes 3.82685
1751
root 18.425 17.196 -16.9249 -550.786 -102.386 188.544
lowerback 4.25286 4.54508 -0.25885
upperback -0.0617314 6.01487 -1.01486
thorax -2.35503 2.99461 -1.26716
lowerneck -19.3854 5.77975 -5.67461
upperneck 22.3754 7.84708 7.50188
head 9.71977 4.02436 4.63132
rclavicle 6.55213e-015 -9.24349e-015
rhumerus -38.1825 -36.653 -66.4663
rradius 23.9338
rwrist -3.89687
rhand -23.4024 23.1961
rfingers 7.12502
rthumb 3.05447 -6.76182
lclavicle 6.55213e-015 -9.24349e-015
lhumerus -23.3576 8.63924 73.0225
lradius 48.9033
lwrist -3.11006
lhand -1.31815 33.5266
lfingers 7.12502
lthumb 24.3272 62.0027
rfemur -10.0343 -6.65097 8.42952
rtibia 40.2387
rfoot -15.2133 -11.0506
rtoes -2.99391
lfemur -6.04919 0.321168 -20.2869
ltibia 31.6747
lfoot -21.7626 -12.1756
ltoes 2.114
1752
root 18.371 17.1989 -16.9779 -553.238 -102.687 191.527
lowerback 4.00354 4.47385 -1.04443
upperback -0.205471 5.87364 -1.31186
thorax -2.41389 2.93052 -1.11726
lowerneck -19.4476 5.57465 -5.57702
upperneck 22.4822 7.41592 7.9365
head 9.78667 3.88297 4.72624
rclavicle -5.79054e-014 7.05686e-015
rhumerus -37.2046 -36.3383 -67.6656
rradius 23.8625
rwrist -3.04471
rhand -23.7889 23.5686
rfingers 7.12502
rthumb 2.68119 -6.39431
lclavicle -5.79054e-014 7.05686e-015
lhumerus -23.0389 9.20202 71.9663
lradius 47.7511
lwrist -2.63557
lhand -1.134 34.1938
lfingers 7.12502
lthumb 24.5038 62.6462
rfemur -10.7285 -5.62937 7.60103
rtibia 38.2634
rfoot -15.6321 -10.9672
rtoes -2.11102
lfemur -6.19156 -0.117152 -20.794
ltibia 31.3919
lfoot -21.3613 -12.5224
ltoes 5.21778
1753
root 18.3236 17.2021 -17.004 -547.921 -102.704 186.484
lowerback 3.93415 4.55202 0.194342
upperback -0.428687 6.04882 -1.03426
thorax -2.50528 3.00534 -1.52836
lowerneck -19.2523 5.23131 -5.37295
upperneck 22.5255 6.84567 7.97728
head 9.8196 3.63659 4.63403
rclavicle -4.91992e-014 6.55989e-015
rhumerus -36.7268 -36.3961 -67.9674
rradius 23.7918
rwrist -2.00482
rhand -24.1426 23.9938
rfingers 7.12502
rthumb 2.33969 -5.97316
lclavicle -4.91992e-014 6.55989e-015
lhumerus -22.6849 9.41469 71.5093
lradius 46.5537
lwrist -2.00532
lhand -1.76435 34.6271
lfingers 7.12502
lthumb 23.8994 63.16
rfemur -11.2537 -4.74634 8.65934
rtibia 36.1278
rfoot -15.835 -11.2047
rtoes -1.73105
lfemur -6.41532 -0.787358 -19.5025
ltibia 31.2396
lfoot -21.4173 -12.1845
ltoes 5.0158
1754
root 18.2592 17.1802 -17.0092 -551.693 -102.889 189.913
lowerback 4.32917 4.66424 -1.46668
upperback -0.301299 6.13406 -0.199404
thorax -2.85895 3.07506 0.192342
lowerneck -18.9615 4.97916 -6.1559
upperneck 22.6546 6.83345 7.51986
head 9.8009 3.5026 4.59181
rclavicle 9.63484e-015 1.98785e-016
rhumerus -35.6639 -34.2735 -67.7584
rradius 23.9023
rwrist -2.2724
rhand -23.8745 24.1671
rfingers 7.12502
rthumb 2.59852 -5.79678
lclavicle 9.63484e-015 1.98785e-016
lhumerus -22.8818 11.5107 72.2297
lradius 45.1069
lwrist -2.19077
lhand -3.0814 35.2555
lfingers 7.12502
lthumb 22.6358 63.9482
rfemur -10.8571 -4.39711 7.33333
rtibia 34.0536
rfoot -15.9113 -10.9719
rtoes -4.14295
lfemur -5.52442 -1.36994 -20.4274
ltibia 31.0017
lfoot -21.6235 -11.5645
ltoes 5.08932
1755
root 18.1932 17.1807 -17.0629 -552.433 -102.701 190.905
lowerback 3.81648 4.6507 -2.34912
upperback -0.111895 6.09663 0.189835
thorax -2.51134 3.06953 1.12812
lowerneck -19.3778 4.77303 -6.87745
upperneck 22.8702 6.69134 7.90657
head 9.92075 3.42049 4.85849
rclavicle -9.13167e-014 9.34288e-015
rhumerus -33.9306 -32.3638 -69.2103
rradius 24.2186
rwrist -2.84391
rhand -23.6157 24.1103
rfingers 7.12502
rthumb 2.84852 -5.85043
lclavicle -9.13167e-014 9.34288e-015
lhumerus -22.4385 13.6176 71.8534
lradius 43.4872
lwrist -2.38627
lhand -4.07611 35.8688
lfingers 7.12502
lthumb 21.6809 64.6748
rfemur -11.2656 -2.93278 6.99561
rtibia 31.9658
rfoot -16.1782 -11.1985
rtoes -4.55595
lfemur -5.4107 -0.785416 -20.3131
ltibia 30.6994
lfoot -21.6488 -11.908
ltoes 4.80446
